<svg xmlns="http://www.w3.org/2000/svg" version="1.1" xmlns:xlink="http://www.w3.org/1999/xlink" xmlns:svgjs="http://svgjs.dev/svgjs" width="1440" height="560" preserveAspectRatio="none" viewBox="0 0 1440 560"><g mask="url(&quot;#SvgjsMask1000&quot;)" fill="none"><rect width="1440" height="560" x="0" y="0" fill="#0e2a47"></rect><path d="M -159.21670888926832,109 C -63.22,147.6 128.78,311.6 320.7832911107317,302 C 512.78,292.4 608.78,35 800.7832911107316,61 C 992.78,87 1088.78,432.8 1280.7832911107316,432 C 1472.78,431.2 1728.94,46.4 1760.7832911107316,57 C 1792.63,67.6 1504.16,399.4 1440,485" stroke="rgba(51, 121, 194, 0.58)" stroke-width="2"></path><path d="M -139.41786843272592,215 C -43.42,263 148.58,485.4 340.5821315672741,455 C 532.58,424.6 628.58,68.8 820.582131567274,63 C 1012.58,57.2 1108.58,420 1300.582131567274,426 C 1492.58,432 1752.7,78.2 1780.582131567274,93 C 1808.47,107.8 1508.12,418.6 1440,500" stroke="rgba(51, 121, 194, 0.58)" stroke-width="2"></path><path d="M -822.536640394798,244 C -726.54,266.4 -534.54,373 -342.53664039479804,356 C -150.54,339 -54.54,162.2 137.46335960520196,159 C 329.46,155.8 425.46,349.2 617.463359605202,340 C 809.46,330.8 932.96,117.8 1097.463359605202,113 C 1261.97,108.2 1371.49,275.4 1440,316" stroke="rgba(51, 121, 194, 0.58)" stroke-width="2"></path><path d="M -177.91724348781736,458 C -81.92,386.4 110.08,131.4 302.08275651218264,100 C 494.08,68.6 590.08,291 782.0827565121826,301 C 974.08,311 1070.08,144.6 1262.0827565121826,150 C 1454.08,155.4 1706.5,312.6 1742.0827565121826,328 C 1777.67,343.4 1500.42,247.2 1440,227" stroke="rgba(51, 121, 194, 0.58)" stroke-width="2"></path></g><defs><mask id="SvgjsMask1000"><rect width="1440" height="560" fill="#ffffff"></rect></mask></defs></svg>